<svg width="1446" height="252" viewBox="0 0 1446 252" fill="none" xmlns="http://www.w3.org/2000/svg">
<path d="M138 49.5C138 65.7924 124.792 79 108.5 79C92.2076 79 79 65.7924 79 49.5C79 33.2076 92.2076 20 108.5 20C124.792 20 138 33.2076 138 49.5Z" fill="white" fill-opacity="0.31"/>
<circle cx="294.5" cy="88.5" r="29.5" fill="#FF0000" fill-opacity="0.12"/>
<circle cx="156.5" cy="199.5" r="29.5" fill="#FF0000" fill-opacity="0.11"/>
<circle cx="1113.5" cy="142.5" r="29.5" fill="#001AFF" fill-opacity="0.27"/>
<circle cx="1321.5" cy="222.5" r="29.5" fill="#3344DA" fill-opacity="0.27"/>
<circle cx="995" cy="30" r="10" fill="white" fill-opacity="0.12"/>
<circle cx="408.941" cy="136.013" r="10" transform="rotate(-125.325 408.941 136.013)" fill="white" fill-opacity="0.12"/>
<circle cx="1061" cy="84" r="10" fill="white" fill-opacity="0.12"/>
<circle cx="414.838" cy="50.9409" r="10" transform="rotate(-125.325 414.838 50.9409)" fill="white" fill-opacity="0.12"/>
<circle cx="985" cy="77" r="10" fill="white" fill-opacity="0.12"/>
<circle cx="453.07" cy="116.996" r="10" transform="rotate(-125.325 453.07 116.996)" fill="white" fill-opacity="0.12"/>
<circle cx="997" cy="145" r="10" fill="white" fill-opacity="0.12"/>
<circle cx="501.612" cy="67.8872" r="10" transform="rotate(-125.325 501.612 67.8872)" fill="white" fill-opacity="0.12"/>
<circle cx="922" cy="35" r="5" fill="white" fill-opacity="0.12"/>
<circle cx="455.229" cy="192.682" r="5" transform="rotate(-125.325 455.229 192.682)" fill="white" fill-opacity="0.12"/>
<circle cx="942" cy="82" r="5" fill="white" fill-opacity="0.12"/>
<circle cx="482.012" cy="149.188" r="5" transform="rotate(-125.325 482.012 149.188)" fill="white" fill-opacity="0.12"/>
<circle cx="985" cy="117" r="5" fill="white" fill-opacity="0.12"/>
<circle cx="485.706" cy="93.8679" r="5" transform="rotate(-125.325 485.706 93.8679)" fill="white" fill-opacity="0.12"/>
<circle cx="1416.5" cy="29.5" r="29.5" fill="#FF0000" fill-opacity="0.12"/>
<circle cx="29.5" cy="96.5" r="29.5" fill="#0529FF" fill-opacity="0.37"/>
</svg>
